<mxfile host="Electron" agent="Mozilla/5.0 (Windows NT 10.0; Win64; x64) AppleWebKit/537.36 (KHTML, like Gecko) draw.io/28.0.4 Chrome/138.0.7204.97 Electron/37.2.1 Safari/537.36" version="28.0.4">
  <diagram name="Page-1" id="cW-S5kLdAMqqTbw-jyZl">
    <mxGraphModel dx="2672" dy="3108" grid="1" gridSize="10" guides="1" tooltips="1" connect="1" arrows="1" fold="1" page="1" pageScale="1" pageWidth="850" pageHeight="1100" math="0" shadow="0">
      <root>
        <mxCell id="0" />
        <mxCell id="1" parent="0" />
        <mxCell id="v57nM8_X_uZloXGhKmkq-2" value="&lt;p style=&quot;margin:0px;margin-top:4px;text-align:center;&quot;&gt;&lt;i&gt;&amp;lt;&amp;lt;Interface&amp;gt;&amp;gt;&lt;/i&gt;&lt;br&gt;&lt;b&gt;Contactdao&lt;/b&gt;&lt;/p&gt;&lt;hr size=&quot;1&quot; style=&quot;border-style:solid;&quot;&gt;&lt;p style=&quot;margin:0px;margin-left:4px;&quot;&gt;+savecontact():int&lt;/p&gt;&lt;p style=&quot;margin:0px;margin-left:4px;&quot;&gt;+updatecontact():int&lt;/p&gt;&lt;p style=&quot;margin:0px;margin-left:4px;&quot;&gt;+ getByIdAndUser(id, userId): Contact&lt;/p&gt;&lt;p style=&quot;margin:0px;margin-left:4px;&quot;&gt;+ deleteByIdAndUser(id, userId): int&amp;nbsp;&lt;/p&gt;&lt;p style=&quot;margin:0px;margin-left:4px;&quot;&gt;+ listByUser(userId): List&amp;lt;Contact&amp;gt;&amp;nbsp;&amp;nbsp;&lt;/p&gt;" style="verticalAlign=top;align=left;overflow=fill;html=1;whiteSpace=wrap;" parent="1" vertex="1">
          <mxGeometry x="440" y="-525" width="190" height="160" as="geometry" />
        </mxCell>
        <mxCell id="v57nM8_X_uZloXGhKmkq-3" value="&lt;p style=&quot;margin:0px;margin-top:4px;text-align:center;&quot;&gt;&lt;b&gt;Contactdaoimpl&lt;/b&gt;&lt;/p&gt;&lt;hr size=&quot;1&quot; style=&quot;border-style:solid;&quot;&gt;&lt;p style=&quot;margin:0px;margin-left:4px;&quot;&gt;-Jdbctemplate():jbdctemplate&lt;/p&gt;&lt;hr size=&quot;1&quot; style=&quot;border-style:solid;&quot;&gt;&lt;p style=&quot;margin:0px;margin-left:4px;&quot;&gt;+save()&lt;/p&gt;&lt;p style=&quot;margin:0px;margin-left:4px;&quot;&gt;+update()&lt;/p&gt;&lt;p style=&quot;margin:0px;margin-left:4px;&quot;&gt;+ getByIdAndUser(...)&lt;/p&gt;&lt;p style=&quot;margin:0px;margin-left:4px;&quot;&gt;+ deleteByIdAndUser(...)&lt;/p&gt;&lt;p style=&quot;margin:0px;margin-left:4px;&quot;&gt;+ listByUser(...)&amp;nbsp;&amp;nbsp;&lt;/p&gt;" style="verticalAlign=top;align=left;overflow=fill;html=1;whiteSpace=wrap;" parent="1" vertex="1">
          <mxGeometry x="250" y="-300" width="160" height="130" as="geometry" />
        </mxCell>
        <mxCell id="v57nM8_X_uZloXGhKmkq-4" value="&lt;p style=&quot;margin:0px;margin-top:4px;text-align:center;text-decoration:underline;&quot;&gt;&lt;b&gt;Contact&lt;/b&gt;&lt;/p&gt;&lt;hr size=&quot;1&quot; style=&quot;border-style:solid;&quot;&gt;&lt;p style=&quot;margin:0px;margin-left:8px;&quot;&gt;+ id: int&amp;nbsp; &amp;nbsp; &amp;nbsp; &amp;nbsp; &amp;nbsp; &amp;nbsp;&amp;nbsp;&lt;/p&gt;&lt;p style=&quot;margin:0px;margin-left:8px;&quot;&gt;+ userId: int&amp;nbsp; &amp;nbsp; &amp;nbsp; &amp;nbsp;&amp;nbsp;&lt;/p&gt;&lt;p style=&quot;margin:0px;margin-left:8px;&quot;&gt;+ name: String&amp;nbsp; &amp;nbsp; &amp;nbsp; &amp;nbsp;&lt;/p&gt;&lt;p style=&quot;margin:0px;margin-left:8px;&quot;&gt;+ email: String&amp;nbsp; &amp;nbsp; &amp;nbsp;&amp;nbsp;&lt;/p&gt;&lt;p style=&quot;margin:0px;margin-left:8px;&quot;&gt;+ address: String&amp;nbsp; &amp;nbsp;&amp;nbsp;&lt;/p&gt;&lt;p style=&quot;margin:0px;margin-left:8px;&quot;&gt;+ phone: String&amp;nbsp;&lt;/p&gt;" style="verticalAlign=top;align=left;overflow=fill;html=1;whiteSpace=wrap;" parent="1" vertex="1">
          <mxGeometry x="30" y="-300" width="160" height="120" as="geometry" />
        </mxCell>
        <mxCell id="tRRzmTRRzj6Igal3a3py-1" value="&lt;p style=&quot;margin:0px;margin-top:4px;text-align:center;text-decoration:underline;&quot;&gt;&lt;b&gt;User&lt;/b&gt;&lt;/p&gt;&lt;hr size=&quot;1&quot; style=&quot;border-style:solid;&quot;&gt;&lt;p style=&quot;margin:0px;margin-left:8px;&quot;&gt;+ id: int&amp;nbsp; &amp;nbsp; &amp;nbsp; &amp;nbsp; &amp;nbsp; &amp;nbsp;&amp;nbsp;&lt;span style=&quot;background-color: transparent; color: light-dark(rgb(0, 0, 0), rgb(255, 255, 255));&quot;&gt;&amp;nbsp; &amp;nbsp; &amp;nbsp; &amp;nbsp;&lt;/span&gt;&lt;/p&gt;&lt;p style=&quot;margin:0px;margin-left:8px;&quot;&gt;+ name: String&amp;nbsp; &amp;nbsp; &amp;nbsp; &amp;nbsp;&lt;/p&gt;&lt;p style=&quot;margin:0px;margin-left:8px;&quot;&gt;+ username: String&amp;nbsp; &amp;nbsp; &amp;nbsp;&amp;nbsp;&lt;/p&gt;&lt;p style=&quot;margin:0px;margin-left:8px;&quot;&gt;+ password: String&amp;nbsp; &amp;nbsp;&amp;nbsp;&lt;/p&gt;" style="verticalAlign=top;align=left;overflow=fill;html=1;whiteSpace=wrap;" vertex="1" parent="1">
          <mxGeometry x="-100" y="-810" width="160" height="110" as="geometry" />
        </mxCell>
        <mxCell id="tRRzmTRRzj6Igal3a3py-2" value="&lt;p style=&quot;margin:0px;margin-top:4px;text-align:center;text-decoration:underline;&quot;&gt;&lt;b&gt;AuthResponse&lt;/b&gt;&lt;/p&gt;&lt;hr size=&quot;1&quot; style=&quot;border-style:solid;&quot;&gt;&lt;p style=&quot;margin:0px;margin-left:8px;&quot;&gt;&lt;span style=&quot;background-color: transparent;&quot;&gt;+ token: String&amp;nbsp;&lt;/span&gt;&lt;span style=&quot;background-color: transparent; color: light-dark(rgb(0, 0, 0), rgb(255, 255, 255));&quot;&gt;&amp;nbsp; &amp;nbsp;&amp;nbsp;&lt;/span&gt;&lt;/p&gt;" style="verticalAlign=top;align=left;overflow=fill;html=1;whiteSpace=wrap;" vertex="1" parent="1">
          <mxGeometry x="140" y="-790" width="160" height="60" as="geometry" />
        </mxCell>
        <mxCell id="tRRzmTRRzj6Igal3a3py-3" value="&lt;p style=&quot;margin:0px;margin-top:4px;text-align:center;text-decoration:underline;&quot;&gt;&lt;b&gt;RegisterRequest&lt;/b&gt;&lt;/p&gt;&lt;hr size=&quot;1&quot; style=&quot;border-style:solid;&quot;&gt;&lt;p style=&quot;margin: 0px 0px 0px 8px;&quot;&gt;+ name: String&amp;nbsp; &amp;nbsp; &amp;nbsp; &amp;nbsp;&lt;/p&gt;&lt;p style=&quot;margin: 0px 0px 0px 8px;&quot;&gt;+ username: String&amp;nbsp; &amp;nbsp; &amp;nbsp;&amp;nbsp;&lt;/p&gt;&lt;p style=&quot;margin: 0px 0px 0px 8px;&quot;&gt;+ password: String&amp;nbsp;&amp;nbsp;&lt;/p&gt;" style="verticalAlign=top;align=left;overflow=fill;html=1;whiteSpace=wrap;" vertex="1" parent="1">
          <mxGeometry x="220" y="-605" width="190" height="80" as="geometry" />
        </mxCell>
        <mxCell id="tRRzmTRRzj6Igal3a3py-4" value="&lt;p style=&quot;margin:0px;margin-top:4px;text-align:center;text-decoration:underline;&quot;&gt;&lt;b&gt;LoginRequest&lt;/b&gt;&lt;/p&gt;&lt;hr size=&quot;1&quot; style=&quot;border-style:solid;&quot;&gt;&lt;p style=&quot;margin: 0px 0px 0px 8px;&quot;&gt;&lt;span style=&quot;background-color: transparent; color: light-dark(rgb(0, 0, 0), rgb(255, 255, 255));&quot;&gt;+ username: String&amp;nbsp; &amp;nbsp; &amp;nbsp;&amp;nbsp;&lt;/span&gt;&lt;/p&gt;&lt;p style=&quot;margin: 0px 0px 0px 8px;&quot;&gt;+ password: String&amp;nbsp;&amp;nbsp;&lt;/p&gt;" style="verticalAlign=top;align=left;overflow=fill;html=1;whiteSpace=wrap;" vertex="1" parent="1">
          <mxGeometry x="360" y="-800" width="190" height="80" as="geometry" />
        </mxCell>
        <mxCell id="tRRzmTRRzj6Igal3a3py-5" value="&lt;p style=&quot;margin:0px;margin-top:4px;text-align:center;&quot;&gt;&lt;i&gt;&amp;lt;&amp;lt;Interface&amp;gt;&amp;gt;&lt;/i&gt;&lt;br&gt;&lt;b&gt;Userdao&lt;/b&gt;&lt;/p&gt;&lt;hr size=&quot;1&quot; style=&quot;border-style:solid;&quot;&gt;&lt;p style=&quot;margin:0px;margin-left:4px;&quot;&gt;+user(user): int&lt;br&gt;&lt;/p&gt;&lt;p style=&quot;margin:0px;margin-left:4px;&quot;&gt;+findByUsername(username): User&amp;nbsp;&lt;/p&gt;&lt;p style=&quot;margin:0px;margin-left:4px;&quot;&gt;&lt;span style=&quot;background-color: transparent;&quot;&gt;+ updatePassword(username, newPassword): int&amp;nbsp; &amp;nbsp; |&lt;/span&gt;&lt;/p&gt;&lt;p style=&quot;margin:0px;margin-left:4px;&quot;&gt;|&amp;nbsp; &amp;nbsp; &amp;nbsp; &amp;nbsp; &amp;nbsp; &amp;nbsp; &amp;nbsp; &amp;nbsp; &amp;nbsp; &amp;nbsp; &amp;nbsp; &amp;nbsp; &amp;nbsp; &amp;nbsp; &amp;nbsp; &amp;nbsp; &amp;nbsp; &amp;nbsp; &amp;nbsp; &amp;nbsp; &amp;nbsp;&amp;nbsp;&lt;/p&gt;" style="verticalAlign=top;align=left;overflow=fill;html=1;whiteSpace=wrap;" vertex="1" parent="1">
          <mxGeometry x="20" y="-120" width="190" height="140" as="geometry" />
        </mxCell>
        <mxCell id="tRRzmTRRzj6Igal3a3py-6" value="&lt;p style=&quot;margin:0px;margin-top:4px;text-align:center;&quot;&gt;&lt;b&gt;Userdaoimpl&lt;/b&gt;&lt;/p&gt;&lt;hr size=&quot;1&quot; style=&quot;border-style:solid;&quot;&gt;&lt;p style=&quot;margin:0px;margin-left:4px;&quot;&gt;-Jdbctemplate():jbdctemplate&lt;/p&gt;&lt;hr size=&quot;1&quot; style=&quot;border-style:solid;&quot;&gt;&lt;p style=&quot;margin:0px;margin-left:4px;&quot;&gt;+ save(...)&amp;nbsp;&lt;/p&gt;&lt;p style=&quot;margin:0px;margin-left:4px;&quot;&gt;+ findByUsername(...)&amp;nbsp;&lt;/p&gt;&lt;p style=&quot;margin:0px;margin-left:4px;&quot;&gt;+ updatePassword(...)&amp;nbsp;&lt;/p&gt;" style="verticalAlign=top;align=left;overflow=fill;html=1;whiteSpace=wrap;" vertex="1" parent="1">
          <mxGeometry x="470" y="-120" width="160" height="115" as="geometry" />
        </mxCell>
        <mxCell id="tRRzmTRRzj6Igal3a3py-7" value="&lt;p style=&quot;margin:0px;margin-top:4px;text-align:center;&quot;&gt;&lt;i&gt;&amp;lt;&amp;lt;Interface&amp;gt;&amp;gt;&lt;/i&gt;&lt;br&gt;&lt;b&gt;UserService&lt;/b&gt;&lt;/p&gt;&lt;hr size=&quot;1&quot; style=&quot;border-style:solid;&quot;&gt;&lt;p style=&quot;margin:0px;margin-left:4px;&quot;&gt;+ register(request: RegisterRequest): boolean&lt;/p&gt;&lt;p style=&quot;margin:0px;margin-left:4px;&quot;&gt;+ validateUser(username, password): boolean&lt;/p&gt;&lt;p style=&quot;margin:0px;margin-left:4px;&quot;&gt;&lt;br&gt;&lt;/p&gt;" style="verticalAlign=top;align=left;overflow=fill;html=1;whiteSpace=wrap;" vertex="1" parent="1">
          <mxGeometry x="-10" y="-950" width="190" height="120" as="geometry" />
        </mxCell>
        <mxCell id="tRRzmTRRzj6Igal3a3py-8" value="&lt;p style=&quot;margin:0px;margin-top:4px;text-align:center;&quot;&gt;&lt;b&gt;UserServiceimpl&lt;/b&gt;&lt;/p&gt;&lt;hr size=&quot;1&quot; style=&quot;border-style:solid;&quot;&gt;&lt;p style=&quot;margin:0px;margin-left:4px;&quot;&gt;- userDao: UserDao&amp;nbsp;&lt;/p&gt;&lt;hr size=&quot;1&quot; style=&quot;border-style:solid;&quot;&gt;&lt;p style=&quot;margin:0px;margin-left:4px;&quot;&gt;+ register(...)&amp;nbsp;&amp;nbsp;&lt;/p&gt;&lt;p style=&quot;margin:0px;margin-left:4px;&quot;&gt;+ validateUser(...)&lt;/p&gt;&lt;p style=&quot;margin:0px;margin-left:4px;&quot;&gt;+ getUserByUsername(...)&amp;nbsp;&amp;nbsp;&lt;/p&gt;" style="verticalAlign=top;align=left;overflow=fill;html=1;whiteSpace=wrap;" vertex="1" parent="1">
          <mxGeometry x="440" y="-960" width="160" height="115" as="geometry" />
        </mxCell>
        <mxCell id="tRRzmTRRzj6Igal3a3py-9" value="&lt;p style=&quot;margin:0px;margin-top:4px;text-align:center;&quot;&gt;&lt;i&gt;&amp;lt;&amp;lt;Interface&amp;gt;&amp;gt;&lt;/i&gt;&lt;br&gt;&lt;b&gt;ContactService&lt;/b&gt;&lt;/p&gt;&lt;hr size=&quot;1&quot; style=&quot;border-style:solid;&quot;&gt;&lt;p style=&quot;margin:0px;margin-left:4px;&quot;&gt;+ save(contact): int&amp;nbsp;&lt;/p&gt;&lt;p style=&quot;margin:0px;margin-left:4px;&quot;&gt;+ update(contact): int&amp;nbsp;&lt;/p&gt;&lt;p style=&quot;margin:0px;margin-left:4px;&quot;&gt;+ get(id, userId): Contact&lt;/p&gt;&lt;p style=&quot;margin:0px;margin-left:4px;&quot;&gt;+ list(userId): List&amp;lt;Contact&amp;gt;&lt;/p&gt;&lt;p style=&quot;margin:0px;margin-left:4px;&quot;&gt;+ delete(id, userId): int&lt;/p&gt;&lt;p style=&quot;margin:0px;margin-left:4px;&quot;&gt;&lt;br&gt;&lt;/p&gt;" style="verticalAlign=top;align=left;overflow=fill;html=1;whiteSpace=wrap;" vertex="1" parent="1">
          <mxGeometry x="-10" y="-1150" width="190" height="130" as="geometry" />
        </mxCell>
        <mxCell id="tRRzmTRRzj6Igal3a3py-10" value="&lt;p style=&quot;margin:0px;margin-top:4px;text-align:center;&quot;&gt;&lt;b&gt;ContactServiceImpl&lt;/b&gt;&lt;/p&gt;&lt;hr size=&quot;1&quot; style=&quot;border-style:solid;&quot;&gt;&lt;p style=&quot;margin:0px;margin-left:4px;&quot;&gt;- dao: ContactDao&amp;nbsp;&lt;/p&gt;&lt;hr size=&quot;1&quot; style=&quot;border-style:solid;&quot;&gt;&lt;p style=&quot;margin:0px;margin-left:4px;&quot;&gt;&lt;span style=&quot;background-color: transparent;&quot;&gt;+ save(...)&lt;/span&gt;&lt;/p&gt;&lt;p style=&quot;margin:0px;margin-left:4px;&quot;&gt;&lt;span style=&quot;background-color: transparent;&quot;&gt;+ update(...)&amp;nbsp;&lt;/span&gt;&lt;/p&gt;&lt;p style=&quot;margin:0px;margin-left:4px;&quot;&gt;&lt;span style=&quot;background-color: transparent;&quot;&gt;+ get(...)&amp;nbsp; &amp;nbsp;&lt;/span&gt;&lt;/p&gt;&lt;p style=&quot;margin:0px;margin-left:4px;&quot;&gt;&lt;span style=&quot;background-color: transparent;&quot;&gt;+ list(...)&amp;nbsp;&amp;nbsp;&lt;/span&gt;&lt;/p&gt;&lt;p style=&quot;margin:0px;margin-left:4px;&quot;&gt;&lt;span style=&quot;background-color: transparent;&quot;&gt;+ delete(...)&amp;nbsp;&lt;/span&gt;&lt;span style=&quot;background-color: transparent; color: light-dark(rgb(0, 0, 0), rgb(255, 255, 255));&quot;&gt;&amp;nbsp;&lt;/span&gt;&lt;/p&gt;" style="verticalAlign=top;align=left;overflow=fill;html=1;whiteSpace=wrap;" vertex="1" parent="1">
          <mxGeometry x="440" y="-1150" width="160" height="130" as="geometry" />
        </mxCell>
        <mxCell id="tRRzmTRRzj6Igal3a3py-11" value="&lt;p style=&quot;margin:0px;margin-top:4px;text-align:center;&quot;&gt;&lt;b&gt;ContactController&lt;/b&gt;&lt;/p&gt;&lt;hr size=&quot;1&quot; style=&quot;border-style:solid;&quot;&gt;&lt;p style=&quot;margin:0px;margin-left:4px;&quot;&gt;- contactDao: ContactDao&lt;/p&gt;&lt;hr size=&quot;1&quot; style=&quot;border-style:solid;&quot;&gt;&lt;p style=&quot;margin:0px;margin-left:4px;&quot;&gt;+ getAllContacts(...)&lt;/p&gt;&lt;p style=&quot;margin:0px;margin-left:4px;&quot;&gt;+ getContact(...)&lt;/p&gt;&lt;p style=&quot;margin:0px;margin-left:4px;&quot;&gt;+ createContact(...)&amp;nbsp;&lt;/p&gt;&lt;p style=&quot;margin:0px;margin-left:4px;&quot;&gt;+ updateContact(...)&amp;nbsp;&lt;/p&gt;&lt;p style=&quot;margin:0px;margin-left:4px;&quot;&gt;+ deleteContact(...)&lt;/p&gt;&lt;p style=&quot;margin:0px;margin-left:4px;&quot;&gt;&lt;br&gt;&lt;/p&gt;" style="verticalAlign=top;align=left;overflow=fill;html=1;whiteSpace=wrap;" vertex="1" parent="1">
          <mxGeometry x="20" y="-510" width="160" height="130" as="geometry" />
        </mxCell>
        <mxCell id="tRRzmTRRzj6Igal3a3py-12" value="&lt;p style=&quot;margin:0px;margin-top:4px;text-align:center;&quot;&gt;&lt;b&gt;AuthController&lt;/b&gt;&lt;/p&gt;&lt;hr size=&quot;1&quot; style=&quot;border-style:solid;&quot;&gt;&lt;p style=&quot;margin:0px;margin-left:4px;&quot;&gt;- contactDao: ContactDao&lt;/p&gt;&lt;hr size=&quot;1&quot; style=&quot;border-style:solid;&quot;&gt;&lt;p style=&quot;margin:0px;margin-left:4px;&quot;&gt;+ register(...)&amp;nbsp;&lt;/p&gt;&lt;p style=&quot;margin:0px;margin-left:4px;&quot;&gt;+ login(...)&amp;nbsp;&lt;/p&gt;&lt;p style=&quot;margin:0px;margin-left:4px;&quot;&gt;&lt;br&gt;&lt;/p&gt;" style="verticalAlign=top;align=left;overflow=fill;html=1;whiteSpace=wrap;" vertex="1" parent="1">
          <mxGeometry x="20" y="-690" width="160" height="100" as="geometry" />
        </mxCell>
        <mxCell id="tRRzmTRRzj6Igal3a3py-13" value="&lt;p style=&quot;margin:0px;margin-top:4px;text-align:center;&quot;&gt;&lt;i&gt;JwtUtil&lt;/i&gt;&lt;/p&gt;&lt;hr size=&quot;1&quot; style=&quot;border-style:solid;&quot;&gt;&lt;p style=&quot;margin:0px;margin-left:4px;&quot;&gt;+ generateToken(...)&lt;/p&gt;&lt;p style=&quot;margin:0px;margin-left:4px;&quot;&gt;+ extractUsername(...)&lt;/p&gt;&lt;p style=&quot;margin:0px;margin-left:4px;&quot;&gt;+ extractUserId(...)&lt;/p&gt;&lt;p style=&quot;margin:0px;margin-left:4px;&quot;&gt;&lt;br&gt;&lt;/p&gt;" style="verticalAlign=top;align=left;overflow=fill;html=1;whiteSpace=wrap;" vertex="1" parent="1">
          <mxGeometry x="440" y="-690" width="190" height="80" as="geometry" />
        </mxCell>
        <mxCell id="tRRzmTRRzj6Igal3a3py-14" value="&lt;p style=&quot;margin:0px;margin-top:4px;text-align:center;&quot;&gt;&lt;i&gt;WebAppInitializer&lt;/i&gt;&lt;/p&gt;&lt;hr size=&quot;1&quot; style=&quot;border-style:solid;&quot;&gt;&lt;p style=&quot;margin:0px;margin-left:4px;&quot;&gt;+ onStartup(servletContext)&lt;/p&gt;&lt;p style=&quot;margin:0px;margin-left:4px;&quot;&gt;&lt;br&gt;&lt;/p&gt;" style="verticalAlign=top;align=left;overflow=fill;html=1;whiteSpace=wrap;" vertex="1" parent="1">
          <mxGeometry x="-10" y="-1290" width="190" height="60" as="geometry" />
        </mxCell>
        <mxCell id="tRRzmTRRzj6Igal3a3py-15" value="&lt;p style=&quot;margin:0px;margin-top:4px;text-align:center;&quot;&gt;&lt;i&gt;SpringMvcConfig&lt;/i&gt;&lt;/p&gt;&lt;hr size=&quot;1&quot; style=&quot;border-style:solid;&quot;&gt;&lt;p style=&quot;margin:0px;margin-left:4px;&quot;&gt;+ jdbcTemplate(...)&lt;/p&gt;&lt;p style=&quot;margin:0px;margin-left:4px;&quot;&gt;&lt;br&gt;&lt;/p&gt;" style="verticalAlign=top;align=left;overflow=fill;html=1;whiteSpace=wrap;" vertex="1" parent="1">
          <mxGeometry x="425" y="-1290" width="190" height="60" as="geometry" />
        </mxCell>
        <mxCell id="tRRzmTRRzj6Igal3a3py-16" value="" style="endArrow=none;dashed=1;html=1;dashPattern=1 3;strokeWidth=2;rounded=0;" edge="1" parent="1">
          <mxGeometry width="50" height="50" relative="1" as="geometry">
            <mxPoint x="187" y="-1260.5" as="sourcePoint" />
            <mxPoint x="425.04" y="-1260.5" as="targetPoint" />
          </mxGeometry>
        </mxCell>
        <mxCell id="tRRzmTRRzj6Igal3a3py-17" value="" style="endArrow=block;dashed=1;endFill=0;endSize=12;html=1;rounded=0;exitX=-0.012;exitY=0.554;exitDx=0;exitDy=0;exitPerimeter=0;entryX=1;entryY=0.538;entryDx=0;entryDy=0;entryPerimeter=0;" edge="1" parent="1" target="tRRzmTRRzj6Igal3a3py-9">
          <mxGeometry width="160" relative="1" as="geometry">
            <mxPoint x="438.0799999999999" y="-1081.49" as="sourcePoint" />
            <mxPoint x="180" y="-1088.51" as="targetPoint" />
          </mxGeometry>
        </mxCell>
        <mxCell id="tRRzmTRRzj6Igal3a3py-18" value="" style="endArrow=block;dashed=1;endFill=0;endSize=12;html=1;rounded=0;exitX=-0.025;exitY=0.443;exitDx=0;exitDy=0;exitPerimeter=0;" edge="1" parent="1" source="tRRzmTRRzj6Igal3a3py-8">
          <mxGeometry width="160" relative="1" as="geometry">
            <mxPoint x="439.99999999999994" y="-886.49" as="sourcePoint" />
            <mxPoint x="181" y="-909" as="targetPoint" />
          </mxGeometry>
        </mxCell>
        <mxCell id="tRRzmTRRzj6Igal3a3py-21" value="Use" style="endArrow=open;endSize=12;dashed=1;html=1;rounded=0;exitX=1.025;exitY=0.32;exitDx=0;exitDy=0;exitPerimeter=0;" edge="1" parent="1" source="tRRzmTRRzj6Igal3a3py-12">
          <mxGeometry width="160" relative="1" as="geometry">
            <mxPoint x="280" y="-660" as="sourcePoint" />
            <mxPoint x="440" y="-660" as="targetPoint" />
          </mxGeometry>
        </mxCell>
        <mxCell id="tRRzmTRRzj6Igal3a3py-22" value="Use" style="endArrow=open;endSize=12;dashed=1;html=1;rounded=0;exitX=1.025;exitY=0.32;exitDx=0;exitDy=0;exitPerimeter=0;" edge="1" parent="1">
          <mxGeometry width="160" relative="1" as="geometry">
            <mxPoint x="184" y="-478" as="sourcePoint" />
            <mxPoint x="440" y="-480" as="targetPoint" />
          </mxGeometry>
        </mxCell>
        <mxCell id="tRRzmTRRzj6Igal3a3py-24" value="" style="endArrow=block;dashed=1;endFill=0;endSize=12;html=1;rounded=0;exitX=1;exitY=0.5;exitDx=0;exitDy=0;" edge="1" parent="1" source="v57nM8_X_uZloXGhKmkq-3">
          <mxGeometry width="160" relative="1" as="geometry">
            <mxPoint x="420" y="-220" as="sourcePoint" />
            <mxPoint x="520" y="-360" as="targetPoint" />
            <Array as="points">
              <mxPoint x="520" y="-235" />
            </Array>
          </mxGeometry>
        </mxCell>
        <mxCell id="tRRzmTRRzj6Igal3a3py-25" value="" style="endArrow=block;dashed=1;endFill=0;endSize=12;html=1;rounded=0;exitX=-0.012;exitY=0.554;exitDx=0;exitDy=0;exitPerimeter=0;entryX=1.005;entryY=0.375;entryDx=0;entryDy=0;entryPerimeter=0;" edge="1" parent="1">
          <mxGeometry width="160" relative="1" as="geometry">
            <mxPoint x="470" y="-70" as="sourcePoint" />
            <mxPoint x="211" y="-68.50999999999999" as="targetPoint" />
          </mxGeometry>
        </mxCell>
        <mxCell id="tRRzmTRRzj6Igal3a3py-26" value="Use" style="endArrow=open;endSize=12;dashed=1;html=1;rounded=0;exitX=0.394;exitY=-0.01;exitDx=0;exitDy=0;exitPerimeter=0;entryX=0.49;entryY=1;entryDx=0;entryDy=0;entryPerimeter=0;" edge="1" parent="1" source="tRRzmTRRzj6Igal3a3py-12" target="tRRzmTRRzj6Igal3a3py-7">
          <mxGeometry width="160" relative="1" as="geometry">
            <mxPoint x="110" y="-748" as="sourcePoint" />
            <mxPoint x="80" y="-800" as="targetPoint" />
          </mxGeometry>
        </mxCell>
        <mxCell id="tRRzmTRRzj6Igal3a3py-27" value="Use" style="endArrow=open;endSize=12;dashed=1;html=1;rounded=0;entryX=0.311;entryY=1.05;entryDx=0;entryDy=0;entryPerimeter=0;" edge="1" parent="1" target="tRRzmTRRzj6Igal3a3py-4">
          <mxGeometry width="160" relative="1" as="geometry">
            <mxPoint x="180" y="-670" as="sourcePoint" />
            <mxPoint x="340" y="-670" as="targetPoint" />
            <Array as="points">
              <mxPoint x="419" y="-670" />
            </Array>
          </mxGeometry>
        </mxCell>
        <mxCell id="tRRzmTRRzj6Igal3a3py-29" value="Use" style="endArrow=open;endSize=12;dashed=1;html=1;rounded=0;entryX=0.688;entryY=1;entryDx=0;entryDy=0;entryPerimeter=0;" edge="1" parent="1" target="tRRzmTRRzj6Igal3a3py-2">
          <mxGeometry width="160" relative="1" as="geometry">
            <mxPoint x="180" y="-680" as="sourcePoint" />
            <mxPoint x="340" y="-680" as="targetPoint" />
            <Array as="points">
              <mxPoint x="250" y="-680" />
            </Array>
          </mxGeometry>
        </mxCell>
        <mxCell id="tRRzmTRRzj6Igal3a3py-33" value="Use" style="endArrow=open;endSize=12;dashed=1;html=1;rounded=0;" edge="1" parent="1">
          <mxGeometry width="160" relative="1" as="geometry">
            <mxPoint x="180" y="-635.5" as="sourcePoint" />
            <mxPoint x="320" y="-605" as="targetPoint" />
            <Array as="points">
              <mxPoint x="320" y="-635" />
            </Array>
          </mxGeometry>
        </mxCell>
        <mxCell id="tRRzmTRRzj6Igal3a3py-36" value="return" style="html=1;verticalAlign=bottom;endArrow=open;dashed=1;endSize=8;curved=0;rounded=0;exitX=0.5;exitY=1;exitDx=0;exitDy=0;" edge="1" parent="1" source="tRRzmTRRzj6Igal3a3py-11">
          <mxGeometry relative="1" as="geometry">
            <mxPoint x="160" y="-320" as="sourcePoint" />
            <mxPoint x="100" y="-300" as="targetPoint" />
          </mxGeometry>
        </mxCell>
        <mxCell id="tRRzmTRRzj6Igal3a3py-37" value="Use" style="endArrow=open;endSize=12;dashed=1;html=1;rounded=0;exitX=0;exitY=0.577;exitDx=0;exitDy=0;exitPerimeter=0;entryX=-0.016;entryY=0.315;entryDx=0;entryDy=0;entryPerimeter=0;" edge="1" parent="1" source="tRRzmTRRzj6Igal3a3py-11" target="tRRzmTRRzj6Igal3a3py-9">
          <mxGeometry width="160" relative="1" as="geometry">
            <mxPoint x="-60" y="-435" as="sourcePoint" />
            <mxPoint x="-20" y="-1110" as="targetPoint" />
            <Array as="points">
              <mxPoint x="-120" y="-435" />
              <mxPoint x="-120" y="-1110" />
            </Array>
          </mxGeometry>
        </mxCell>
        <mxCell id="tRRzmTRRzj6Igal3a3py-39" value="Use" style="endArrow=open;endSize=12;dashed=1;html=1;rounded=0;entryX=0.458;entryY=0;entryDx=0;entryDy=0;entryPerimeter=0;exitX=0.5;exitY=0;exitDx=0;exitDy=0;" edge="1" parent="1" source="tRRzmTRRzj6Igal3a3py-7" target="tRRzmTRRzj6Igal3a3py-5">
          <mxGeometry width="160" relative="1" as="geometry">
            <mxPoint x="90" y="-1010" as="sourcePoint" />
            <mxPoint x="90" y="-150" as="targetPoint" />
            <Array as="points">
              <mxPoint x="85" y="-1000" />
              <mxPoint x="760" y="-1000" />
              <mxPoint x="760" y="-150" />
              <mxPoint x="107" y="-150" />
            </Array>
          </mxGeometry>
        </mxCell>
        <mxCell id="tRRzmTRRzj6Igal3a3py-41" value="" style="endArrow=block;endFill=1;html=1;edgeStyle=orthogonalEdgeStyle;align=left;verticalAlign=top;rounded=0;entryX=0.25;entryY=0;entryDx=0;entryDy=0;exitX=0;exitY=0.5;exitDx=0;exitDy=0;" edge="1" parent="1" source="tRRzmTRRzj6Igal3a3py-7" target="tRRzmTRRzj6Igal3a3py-1">
          <mxGeometry x="-1" relative="1" as="geometry">
            <mxPoint x="-60" y="-890" as="sourcePoint" />
            <mxPoint x="40" y="-970" as="targetPoint" />
            <mxPoint as="offset" />
          </mxGeometry>
        </mxCell>
        <mxCell id="tRRzmTRRzj6Igal3a3py-42" value="1" style="edgeLabel;resizable=0;html=1;align=left;verticalAlign=bottom;" connectable="0" vertex="1" parent="tRRzmTRRzj6Igal3a3py-41">
          <mxGeometry x="-1" relative="1" as="geometry" />
        </mxCell>
        <mxCell id="tRRzmTRRzj6Igal3a3py-43" value="Use" style="endArrow=open;endSize=12;dashed=1;html=1;rounded=0;exitX=0.816;exitY=-0.017;exitDx=0;exitDy=0;exitPerimeter=0;entryX=1;entryY=0.25;entryDx=0;entryDy=0;" edge="1" parent="1" source="tRRzmTRRzj6Igal3a3py-7" target="tRRzmTRRzj6Igal3a3py-13">
          <mxGeometry width="160" relative="1" as="geometry">
            <mxPoint x="140" y="-970" as="sourcePoint" />
            <mxPoint x="680" y="-660" as="targetPoint" />
            <Array as="points">
              <mxPoint x="145" y="-970" />
              <mxPoint x="680" y="-970" />
              <mxPoint x="680" y="-670" />
            </Array>
          </mxGeometry>
        </mxCell>
        <mxCell id="tRRzmTRRzj6Igal3a3py-45" value="" style="endArrow=block;dashed=1;endFill=0;endSize=12;html=1;rounded=0;entryX=0.421;entryY=0;entryDx=0;entryDy=0;entryPerimeter=0;" edge="1" parent="1" target="tRRzmTRRzj6Igal3a3py-9">
          <mxGeometry width="160" relative="1" as="geometry">
            <mxPoint x="590" y="-360" as="sourcePoint" />
            <mxPoint x="150" y="-1198.51" as="targetPoint" />
            <Array as="points">
              <mxPoint x="590" y="-160" />
              <mxPoint x="-120" y="-160" />
              <mxPoint x="-120" y="40" />
              <mxPoint x="800" y="40" />
              <mxPoint x="800" y="-1180" />
              <mxPoint x="70" y="-1180" />
            </Array>
          </mxGeometry>
        </mxCell>
        <mxCell id="tRRzmTRRzj6Igal3a3py-48" value="" style="endArrow=block;endFill=1;html=1;edgeStyle=orthogonalEdgeStyle;align=left;verticalAlign=top;rounded=0;entryX=0.001;entryY=0.604;entryDx=0;entryDy=0;entryPerimeter=0;" edge="1" parent="1" target="v57nM8_X_uZloXGhKmkq-4">
          <mxGeometry x="-1" relative="1" as="geometry">
            <mxPoint x="-10" y="-1140" as="sourcePoint" />
            <mxPoint x="-160" y="-1045" as="targetPoint" />
            <mxPoint as="offset" />
            <Array as="points">
              <mxPoint x="-160" y="-1140" />
              <mxPoint x="-160" y="-228" />
            </Array>
          </mxGeometry>
        </mxCell>
        <mxCell id="tRRzmTRRzj6Igal3a3py-49" value="1" style="edgeLabel;resizable=0;html=1;align=left;verticalAlign=bottom;" connectable="0" vertex="1" parent="tRRzmTRRzj6Igal3a3py-48">
          <mxGeometry x="-1" relative="1" as="geometry" />
        </mxCell>
        <mxCell id="tRRzmTRRzj6Igal3a3py-50" value="name" style="endArrow=block;endFill=1;html=1;edgeStyle=orthogonalEdgeStyle;align=left;verticalAlign=top;rounded=0;exitX=-0.009;exitY=0.676;exitDx=0;exitDy=0;exitPerimeter=0;" edge="1" parent="1" source="tRRzmTRRzj6Igal3a3py-5">
          <mxGeometry x="-1" relative="1" as="geometry">
            <mxPoint x="-300" y="-200" as="sourcePoint" />
            <mxPoint x="-60" y="-700" as="targetPoint" />
          </mxGeometry>
        </mxCell>
        <mxCell id="tRRzmTRRzj6Igal3a3py-51" value="1" style="edgeLabel;resizable=0;html=1;align=left;verticalAlign=bottom;" connectable="0" vertex="1" parent="tRRzmTRRzj6Igal3a3py-50">
          <mxGeometry x="-1" relative="1" as="geometry" />
        </mxCell>
      </root>
    </mxGraphModel>
  </diagram>
</mxfile>
